<svg width="186" height="75" viewBox="0 0 186 75" fill="none" xmlns="http://www.w3.org/2000/svg">
<path d="M2 54.1174V19.3107L11.5946 45.0244L12.0259 46.1803L13.2433 45.9801L49.7433 39.9801L50.0106 39.9362L50.2457 39.8015L98.0443 12.4169L138.78 3.59778L36.4204 73.2399L2 54.1174Z" stroke="#FF5E00" stroke-width="3"/>
<path d="M80.4512 67.9492C82.4108 67.9492 84.2907 67.6074 86.0908 66.9238L87.0479 69.9658C85.5439 70.4443 84.0059 70.6836 82.4336 70.6836C80.8613 70.6836 79.46 70.5127 78.2295 70.1709C77.0218 69.8291 76.0876 69.3848 75.4268 68.8379C75.1077 67.2656 74.9596 65.7161 74.9824 64.1895C74.9824 61.0677 75.5635 58.2422 76.7256 55.7129C77.9105 53.1608 79.2663 51.3835 80.793 50.3809L86.1934 53.7988C83.6185 55.4395 81.5677 57.5358 80.041 60.0879C78.5371 62.64 77.7852 65.1921 77.7852 67.7441C78.5827 67.8809 79.4714 67.9492 80.4512 67.9492ZM100.173 55.3369C100.492 55.3369 100.834 55.4053 101.198 55.542C102.155 56.6813 102.805 58.6751 103.146 61.5234C103.488 64.3717 103.659 67.1973 103.659 70L98.6348 70.4102C98.6348 66.1035 98.4867 62.1956 98.1904 58.6865C95.7067 59.598 94.0433 63.4261 93.2002 70.1709L90.4316 70.4102L89.0303 50.8936L95.0117 49.9707L93.9521 61.4893H94.2256C95.0003 59.6208 95.9004 58.1283 96.9258 57.0117C97.9512 55.8952 99.0335 55.3369 100.173 55.3369ZM117.058 58.6182C118.562 60.3727 119.313 62.3665 119.313 64.5996C119.313 66.8327 118.869 68.4049 117.98 69.3164C117.092 70.2279 115.451 70.6836 113.059 70.6836C110.666 70.6836 108.809 70.1367 107.487 69.043C106.576 64.5768 107.1 60.9538 109.06 58.1738C110.29 56.4648 111.372 55.3711 112.307 54.8926C114.084 55.804 115.668 57.0459 117.058 58.6182ZM115.622 67.6416C115.918 66.5023 116.066 65.1807 116.066 63.6768C116.066 62.1729 115.69 60.6917 114.938 59.2334C113.389 60.0537 112.102 61.307 111.076 62.9932C110.074 64.6566 109.572 66.3428 109.572 68.0518C110.165 68.1657 111.019 68.2227 112.136 68.2227C113.275 68.2227 114.437 68.029 115.622 67.6416ZM124.064 70.4102L122.663 50.8936L128.645 49.9707L126.833 70.1709L124.064 70.4102ZM141.975 58.6182C143.479 60.3727 144.23 62.3665 144.23 64.5996C144.23 66.8327 143.786 68.4049 142.897 69.3164C142.009 70.2279 140.368 70.6836 137.976 70.6836C135.583 70.6836 133.726 70.1367 132.404 69.043C131.493 64.5768 132.017 60.9538 133.977 58.1738C135.207 56.4648 136.289 55.3711 137.224 54.8926C139.001 55.804 140.585 57.0459 141.975 58.6182ZM140.539 67.6416C140.835 66.5023 140.983 65.1807 140.983 63.6768C140.983 62.1729 140.607 60.6917 139.855 59.2334C138.306 60.0537 137.019 61.307 135.993 62.9932C134.991 64.6566 134.489 66.3428 134.489 68.0518C135.082 68.1657 135.936 68.2227 137.053 68.2227C138.192 68.2227 139.354 68.029 140.539 67.6416Z" fill="#FF5E00"/>
</svg>
